<?xml version="1.0" encoding="utf-8"?>
<!-- Generator: Adobe Illustrator 24.0.2, SVG Export Plug-In . SVG Version: 6.00 Build 0)  -->
<svg version="1.1" id="Layer_1" xmlns="http://www.w3.org/2000/svg" xmlns:xlink="http://www.w3.org/1999/xlink" x="0px" y="0px"
	 viewBox="0 0 1920 1080" style="enable-background:new 0 0 1920 1080;" xml:space="preserve">
<style type="text/css">
	.st0{fill:#106FDE;}
	.st1{fill:#173C68;}
	.st2{fill:#223248;}
</style>
<g>
	<path class="st0" d="M1920.9,540c-64.6,56.7-149.2,91-241.9,91c-202.7,0-367-164.3-367-367c0-103.7,43-197.3,112.1-264H1920
		l0.7,391.5l0,34L1920.9,540z"/>
</g>
<g>
	<path class="st1" d="M1920.7,425.5c-55.6,50.7-129.5,81.5-210.7,81.5c-172.9,0-313-140.1-313-313c0-73.3,25.2-140.7,67.3-194H1920
		l0.7,391.5L1920.7,425.5z"/>
</g>
<g>
	<path class="st2" d="M1920.7,391.5C1874,425.8,1816.3,446,1754,446c-155.7,0-282-126.3-282-282c0-61.2,19.5-117.8,52.6-164H1920
		L1920.7,391.5z"/>
</g>
</svg>
